<svg xmlns="http://www.w3.org/2000/svg" viewBox="0 0 134.97 415"><defs><style>.cls-1{fill:#fff;}.cls-2{isolation:isolate;}</style></defs><g id="圖層_2" data-name="圖層 2"><g id="圖層_1-2" data-name="圖層 1"><g id="圖層_2-2" data-name="圖層 2"><g id="圖層_1-2-2" data-name="圖層 1-2"><rect x="5.84" y="0.5" width="123.66" height="414" rx="45.17"/><path d="M84.33,1A44.72,44.72,0,0,1,129,45.67V369.33A44.72,44.72,0,0,1,84.33,414H51A44.71,44.71,0,0,1,6.34,369.33V45.67A44.71,44.71,0,0,1,51,1H84.33m0-1H51A45.8,45.8,0,0,0,5.34,45.67V369.33A45.8,45.8,0,0,0,51,415H84.33A45.8,45.8,0,0,0,130,369.33V45.67A45.8,45.8,0,0,0,84.33,0Z"/><path class="cls-1" d="M123,250.19c-.32-1.71-.73-3.41-1.09-5.12-.2-1-.93-1.36-2.15-1.33-2.87.09-5.75.26-8.62.23-7.13-.09-14.26-.31-21.39-.39-2,0-4,.3-6,.44H75.24a2,2,0,0,1-1.34-.46,8.16,8.16,0,0,1-1.43-2.66c-.49-2.13-.77-4.29-1.08-6.44a2.28,2.28,0,0,1,.38-1,45.16,45.16,0,0,0,2.64-5.13A62.32,62.32,0,0,0,76,222a.62.62,0,0,1,.07-.36c.82-.92,1.66-1.84,2.49-2.76a15.41,15.41,0,0,1,2.94,1.77c2.57,2.52,5,5.12,7.43,7.72,1.11,1.19,2.12,2.43,3.18,3.65,1.78-2.77,3.25-5.69,5-8.46a6.82,6.82,0,0,0-1.93-2.72c-2.72-2.52-5.36-5.09-8-7.63-1.59-1.51-3.22-3-4.81-4.5a7.2,7.2,0,0,1-.66-1,17.84,17.84,0,0,1,3.23-.6c4.4,0,8.81.14,13.21.23,1.82,0,3.64.06,5.46.17a3.51,3.51,0,0,1,1.31.58c.61.34,1.19.72,2.16,1.3,0-.85.27-1.43.07-1.89a64.43,64.43,0,0,0-2.87-5.84c-.16-.3-1.17-.42-1.8-.42-.89,0-1.79.29-2.69.29a175.32,175.32,0,0,0-21,1.08,30.12,30.12,0,0,1-5.2-.27,37.1,37.1,0,0,0-3.8-.25c-1.14,0-1.7-.25-1.7-1.11,0-2.74,0-5.48.14-8.21.06-1-.18-1.41-1.42-1.76a33.51,33.51,0,0,1-4.2-1.75c-.54-.24-1.06-.49-1.6-.72-1.13-.47-1.49-.16-1.62.8-.45,3.28-1,6.55-1.56,9.81-.33,1.77-1.32,2.37-3.56,2.34-3.59,0-7.18-.19-10.77-.19-3.17,0-6.35.17-9.52.16-1.82,0-3.64-.25-5.47-.34-1.33-.06-2.68,0-4-.1-1-.1-2-.45-3-.62a1.74,1.74,0,0,0-1.11.15,24,24,0,0,0-1.66,3.82,15.08,15.08,0,0,0-.19,3c-.12,1.6,1.08,2.16,3,1.75a41.3,41.3,0,0,1,6.17-.68c3-.15,6-.17,9.07-.24h7.05q.69-.06,1.38-.06c2.39.23,2.9.91,1.71,2.53-1.47,2-3,4-4.61,6-2,2.5-4,5-5.9,7.51a1.52,1.52,0,0,0,0,1.54c1.27,2,2.66,4,4,5.94.09.14.12.31.22.45,1.11,1.6,2,1.53,3.48.12,1.82-1.79,2.49-3.94,3.59-6,.42-.77,1-1.51,1.41-2.28s.7-1.41,1.11-2.1a6.76,6.76,0,0,1,1.07-1.43c.64-.64,1-.54,1.7.17,3.11,3.38,4.7,7.53,8.91,10.35,1,.7,1.33,2,2.89,2.5.22.06.33.56.34.87.07,2.34.11,4.67.17,7a4,4,0,0,0,.12.84c.42,1.56-.3,2.33-2.33,2.48H38.26c-6.87,0-13.74.17-20.6.22a2.3,2.3,0,0,0-2.38,1.24A36.78,36.78,0,0,0,13.8,251c-.08.35.32.77.5,1.16a4.51,4.51,0,0,0,1.33-.48c1-1,2.29-1,3.74-1,3.47,0,6.93-.09,10.39-.14a1.19,1.19,0,0,1,.46,0l.22.07c7.75-.23,16.06-1.36,23.67,0a71.27,71.27,0,0,1,9.8.29,1.52,1.52,0,0,1,1.46,1,2.6,2.6,0,0,1,.49,1c.21.74.65,1.43.82,2.17.4,1.73.73,3.47,1.06,5.2.45,2.43.86,4.87,1.32,7.3.69,3.57,1.37,7.14,2.13,10.7.45,2.09,1,4.17,1.6,6.25.17.62.71.69,1.25.28,1.61-1.25,3.57-2.35,4.65-3.83.78-1.09.67-2.74.45-4.08-.39-2.29-1.21-4.54-1.78-6.81-.42-1.65-.74-3.31-1.11-5a2.81,2.81,0,0,0-.12-.48c-.13-.78-.26-1.56-.4-2.35a1.58,1.58,0,0,1-.13-.56v-.31l-.33-1.91c-.12-.45-.26-.88-.41-1.32a1.39,1.39,0,0,1-.24-.65h0a15.34,15.34,0,0,1-1.32-5.19,1.34,1.34,0,0,1,.13-.59v-.05h0v-.21h0v-.24h0a1.48,1.48,0,0,1,.1-.27,1.78,1.78,0,0,1,2-1.5c2.48,0,5-.1,7.45-.11a3.05,3.05,0,0,1,.6.06H89.7a17.76,17.76,0,0,0,2.52-.24,2.43,2.43,0,0,1,1.63.24h5.87a4.77,4.77,0,0,1,1,.08,15.53,15.53,0,0,1,5,0c2.45-.22,4.94-.1,7.43-.23a2,2,0,0,1,.59,0,1.66,1.66,0,0,1,.31-.12,1.94,1.94,0,0,1,.79-.14h.29a2.46,2.46,0,0,1,1,.21,7.78,7.78,0,0,1,1.16.46,1.85,1.85,0,0,1,.53.34h0c1.16-.18,2.65,1,4,1.54l1.1.48A12.67,12.67,0,0,0,123,250.19ZM69.8,220.47a2.26,2.26,0,0,1-2.27-1.14c-.67-1.05-1.21-2.5-3.17-2.17-1.7.28-1.51,1.71-1.84,2.77a4.09,4.09,0,0,1-.65,1c-.46-.2-1.09-.32-1.35-.63a76.52,76.52,0,0,1-4.81-6.15,2.5,2.5,0,0,1,.1-2.26A11.66,11.66,0,0,1,58,208.57a7.66,7.66,0,0,1,2.36-1.17c3.23,0,5.85-.07,8.44,0a4.19,4.19,0,0,1,2.46.94,29.35,29.35,0,0,1,3.36,4.17c.31.45.36,1.43,0,1.68-2,1.3-1.78,3.27-2.71,4.88a2.22,2.22,0,0,1-2.11,1.35Z"/><path class="cls-1" d="M47,35.2a10.83,10.83,0,0,0-3,.8,4.59,4.59,0,0,0-1.6,1.76,16.39,16.39,0,0,0-1,2.32C39.22,45.15,37,50.19,34.87,55.3,33.35,59,32,62.77,30.65,66.54c-1,2.83-1.75,5.73-2.79,8.54-1.35,3.65-3,7.21-4.29,10.87a7.69,7.69,0,0,0-.29,1.17v.1l-.15.38A8.63,8.63,0,0,0,20.94,92c-.05.06-.1.13-.16.19a6.26,6.26,0,0,0-1.32,2.46c-.79,1.33-1.28,2.85-2.09,4.15s-1.15,2.84-1.88,4.18-1.7,2.62-2.57,3.91c-.39.56-.83,1.09-1.2,1.66C10.28,110.77,8.9,113,7.4,115.2c-.3.42-1.06.53-1.74.84.11-1.78.31-3.07.25-4.34-.21-4-.55-8-.75-12a2,2,0,0,1,.45-1,3.78,3.78,0,0,0,.26-.43,7.76,7.76,0,0,1,.8.92.44.44,0,0,1,.08.25c.24,3.7.39,7.41.55,11.11v1.77c1.78-.87,2.22-2.28,2.84-3.55,1.67-3.45,3-7.12,5.07-10.34a87.12,87.12,0,0,0,7.38-14.22c2.23-5.42,4.44-10.85,6.54-16.32C30.65,64,31.9,60,33.39,56.1c1.6-4.21,3.34-8.37,5-12.55,1-2.45,1.92-4.93,3-7.33A2.75,2.75,0,0,1,43,35.15c1.22-.41,2.5-.66,3.75-1-.66-2.43-1.32-2.61-4.43-1.59.39-.59.79-1.17,1.31-2-.31-.27-.73-.7-1.21-1-2.17-1.58-4.77-1.87-7.34-2.24-1.2-.17-1.78.28-1.76,1.6A20.5,20.5,0,0,1,33,32.78a2.87,2.87,0,0,1-.47,1c-.1.16-.2.32-.29.49l-.51-.1c0-.61-.06-1.22-.07-1.84v-.69c0-1.06.12-2.13.1-3.2s.5-2.09,1.73-2.09a24.33,24.33,0,0,1,4.74.46,17.3,17.3,0,0,1,8.15,3.85,15.68,15.68,0,0,1,1.75,1.61C49.53,34,49.22,34.8,47,35.2Z"/><path class="cls-1" d="M6.16,97.52c-.23.36-.39.58-.44.56C6,97.2,6,97.66,6.16,97.52Z"/><path class="cls-1" d="M32.2,34.52h0c-.23.36-.36.68-2.09,4.16-.13.24-.26.51-.4.79-.6,1.2-1.36,2.72-2.33,4.64h0L26,47c-2.25,5.56-4.42,11.14-6.65,16.7-.5,1.25-1.27,2.41-1.71,3.68-.8,2.32-1.32,4.75-2.2,7-.79,2-2.06,3.89-2.84,5.93-.71,1.85-3.26,8.59-4.89,13.06C7.07,95,6.6,96.29,6.38,97a3.29,3.29,0,0,1-.16.44c.53-.84,1.39-2.35,2.11-3.57A9.34,9.34,0,0,1,9.57,92c.37-1,.7-2,1.11-2.91,1.25-2.93,2.6-5.81,3.76-8.76s2-5.85,3.14-8.74c2.25-5.91,8.83-22.15,12.65-31.85.86-2.18,1.58-4,2.08-5.35C32.4,34.11,32.36,34.2,32.2,34.52Zm-2.31,5.06h0c-.76,1.68-1.53,3.33-2,4.31-.37.76-.58,1.11-.47.74v-.06l2.39-5,.15-.31,1.24-2.61C30.82,37.55,30.36,38.57,29.89,39.58Z"/><path class="cls-1" d="M27.43,44.71a4,4,0,0,1,0-1.47,35.47,35.47,0,0,1,2.83-5.52,15.2,15.2,0,0,1-2.83,7Z"/><path class="cls-1" d="M32.77,33.13a1.74,1.74,0,0,0-.28.69,3.89,3.89,0,0,1-.1.54c0,.19,0,.25-.07.37a14.14,14.14,0,0,1-.77,2.47,8,8,0,0,1-1.32,2.51l-.13.15-.23-.21h-.05l-.12-.11-.35-.31L29.08,39a6.49,6.49,0,0,0,1.17-2.22A13.33,13.33,0,0,0,31,34.48l.06-.34a4,4,0,0,1,.6-1.77h0Z"/><path class="cls-1" d="M46.78,34.17c-1.25.32-2.53.57-3.75,1a2.8,2.8,0,0,0-1.6,1.07c-1.09,2.4-2,4.88-3,7.33-1.69,4.18-3.43,8.34-5,12.55C31.9,60,30.65,64,29.15,67.86c-2.1,5.47-4.31,10.9-6.54,16.32A87.12,87.12,0,0,1,15.23,98.4c-2.07,3.22-3.4,6.89-5.07,10.34-.62,1.27-1.06,2.68-2.84,3.55v-1.77c-.16-3.7-.31-7.41-.55-11.11a.44.44,0,0,0-.08-.25h.06A9.51,9.51,0,0,0,7.36,97a11.55,11.55,0,0,1,.32-1.32A5.65,5.65,0,0,1,8.57,94l-.24-.17A9.07,9.07,0,0,1,9.57,92c.37-1,.7-2,1.11-2.91,1.25-2.93,2.6-5.81,3.76-8.76s2-5.85,3.14-8.74c2.25-5.91,8.83-22.15,12.65-31.85a8,8,0,0,0,1.32-2.51,14.14,14.14,0,0,0,.77-2.47.7.7,0,0,1,.07-.37,2.6,2.6,0,0,0,.1-.54,2.87,2.87,0,0,0,.47-1A20.79,20.79,0,0,0,33.35,29c0-1.32.56-1.77,1.76-1.6,2.57.37,5.17.66,7.34,2.24.48.35.9.78,1.21,1.05-.52.8-.92,1.38-1.31,2C45.46,31.56,46.12,31.74,46.78,34.17Z"/><path class="cls-1" d="M8.57,94a5.65,5.65,0,0,0-.89,1.68A11.55,11.55,0,0,0,7.36,97a9.56,9.56,0,0,1-.63,2.16H6.67l-1.06-.49-.14-.06A7.84,7.84,0,0,0,6,96.76a12.12,12.12,0,0,1,.36-1.47,7.16,7.16,0,0,1,1.1-2.08l.2.15.67.49Z"/><path class="cls-1" d="M123.18,90.11l-1.36-.25a.2.2,0,0,0,0,.15h-.07a3.09,3.09,0,0,0-.43,0h-.41a3.05,3.05,0,0,1-.67-.13A5.64,5.64,0,0,1,117.88,88l-5.29-6.14.29-.24.5-.42.26-.21,4.68,5.42.62.72A3.6,3.6,0,0,0,121,88.59h.63a1.76,1.76,0,0,1,.46.06,1.45,1.45,0,0,1,1,.94A1.14,1.14,0,0,1,123.18,90.11Z"/><path class="cls-1" d="M129.89,81.13c-.22,3.65-.44,7.3-.73,10.94-.12,1.52-1.54,2.1-3.35,1.14a64.68,64.68,0,0,1-5.55-3.4l-1.41-1c-.61-.42-.82-1.38-1.22-2.09l.5-.52.19.13,3.34,2.24,1.5,1,1.36.92c.37.25.64.67,1,.88,1.22.64,2.19.12,2.25-1.24s0-2.6,0-3.9c.15-2.75.24-5.52.58-8.26a4.13,4.13,0,0,0-.92-3.49l1-.84c.3.32.59.64.87,1a4.17,4.17,0,0,1,.64,2.43A34.38,34.38,0,0,1,129.89,81.13Z"/><path class="cls-1" d="M128.46,73.67l-1,.84-.32-.33c-2.68-2.57-5.43-5.07-7.92-7.8-3.46-3.77-6.82-7.64-10-11.63s-5.94-8.23-9.11-12.2C97.2,38.88,94,35.43,90.87,31.9c-.49-.54-1.18-.91-1.71-1.42-1-1-.78-1.62.59-2,2.71-.68,5.43-1.35,8.13-2.07a1.63,1.63,0,0,0,1-.76,1.51,1.51,0,0,0-.63-1.06c-1.92-1.52-3.82-3.09-5.84-4.47a54.16,54.16,0,0,0-7.16-4.31,3.85,3.85,0,0,0-3.4.69,30.44,30.44,0,0,1-9.88,6q-3,1.17-6.1,2.3h0a4.85,4.85,0,0,1-.85.13H65s-.08-.27-.11-.4h.1l.09-.05h0a6.42,6.42,0,0,1,1.32-.57c4.34-1,8.09-3.26,11.69-5.7,1.57-1.07,2.52-3,4.68-3.26a6.13,6.13,0,0,1,1.86-.14c3.71.8,7.13,2.13,9.87,4.89a47.69,47.69,0,0,0,3.83,3.11,15.64,15.64,0,0,1,2.3,2,2.18,2.18,0,0,1,.32,1.82c-.14.4-.91.69-1.45.84-1.59.46-3.21.84-4.82,1.23-1.11.26-2.23.49-3.76.84.64.84,1,1.78,1.75,2.22a13.25,13.25,0,0,1,3.53,3.59c1.84,2.45,4,4.63,6,6.94,2.16,2.48,4.33,5,6.44,7.5q1.88,2.22,3.56,4.58c1.4,2,2.63,4,4.07,6a42.93,42.93,0,0,0,3.21,3.53C122.42,67.15,125.48,70.37,128.46,73.67Z"/><path class="cls-1" d="M114.08,82.6a12.72,12.72,0,0,1-1.2-1h0c-2.89-3.25-5.94-6.4-8.58-9.84-2.06-2.9-4-5.91-5.73-9-1.75-2.82-3.54-5.62-5.19-8.5-1.42-2.46-2.5-5.1-4-7.48-2.2-3.5-4.7-6.81-7-10.26a17.74,17.74,0,0,1-1.22-2.17c-.18-.37-.35-.74-.52-1.12l.22-.2L81,32.9l.38.5c5.73,7.58,27.8,40.42,32,47.81A6.51,6.51,0,0,1,114.08,82.6Z"/><path class="cls-1" d="M77.9,29.49a3.83,3.83,0,0,0-.29.28c-.12.1-.24.22-.36.33l-.19.18h-.49C68.66,30.15,60.77,29.93,53,28l-.19-.51c.62-.33,1.26-.95,1.87-.93a17.44,17.44,0,0,0,7.58-1.32l.46-.21a1.1,1.1,0,0,1,.57,0l.33.07.58.09-.41.29h-.07l-2.9,2.07,2.53.53A34.62,34.62,0,0,0,74.46,29a6.48,6.48,0,0,1,1.76.07h.11A11.59,11.59,0,0,0,77.9,29.49Z"/><path class="cls-1" d="M64.94,25.39h-.15l-.47.05h-.55a2.21,2.21,0,0,0-.75.29l-.38.28L62,25.45l.26-.2a1.37,1.37,0,0,1,.21-.15,3.21,3.21,0,0,1,.83-.36l.22-.06c.21-.05.43-.08.65-.11l.48-.05h.24v.89Z"/><path class="cls-1" d="M81.61,34l-.46.28-.33.2a2.66,2.66,0,0,1-.39-1.17V33.1a.66.66,0,0,0-.17-.12h-.07a4.74,4.74,0,0,1-1-1,4.92,4.92,0,0,0-.79-.79A3.68,3.68,0,0,0,78,31l-1.19-.58-.18-.09L75.9,30l.38-.79h.09l.79.38.45.22.74.36a3.6,3.6,0,0,1,.55.29,4.74,4.74,0,0,1,1,1,3.7,3.7,0,0,0,.79.79h.06a1.28,1.28,0,0,1,.5.48.88.88,0,0,1,0,.15,1.65,1.65,0,0,1,.06.32v.16A1.7,1.7,0,0,0,81.61,34Z"/><path class="cls-1" d="M128.41,78c-.34,2.74-.43,5.51-.58,8.26-.07,1.3,0,2.61,0,3.9s-1,1.88-2.25,1.24a9.39,9.39,0,0,1-1-.88l-1.36-.92a1.45,1.45,0,0,0-1-.94,1.76,1.76,0,0,0-.46-.06l-3.34-2.24-4.68-5.42-.26.21c-4.22-7.39-26.29-40.23-32-47.81v-.16a1.65,1.65,0,0,0-.06-.32.88.88,0,0,0,0-.15,1.28,1.28,0,0,0-.5-.48h-.06a3.7,3.7,0,0,1-.79-.79,4.74,4.74,0,0,0-1-1,3.6,3.6,0,0,0-.55-.29l-.74-.36a3.83,3.83,0,0,1,.29-.28c-.51-.11-1-.23-1.53-.32H76.4a6.48,6.48,0,0,0-1.76-.07,34.62,34.62,0,0,1-11.11-.91L61,27.68l2.9-2.07h.55a2.42,2.42,0,0,0,.47-.05h.15a3.89,3.89,0,0,0,1-.32L66,25h0c2-.75,4.07-1.51,6.1-2.3a30.44,30.44,0,0,0,9.88-6,3.85,3.85,0,0,1,3.4-.69,54.16,54.16,0,0,1,7.16,4.31c2,1.38,3.92,2.95,5.84,4.47A1.51,1.51,0,0,1,99,25.88c0,.3-.57.66-1,.76-2.7.72-5.42,1.39-8.13,2.07-1.37.34-1.58,1-.59,2,.53.51,1.22.88,1.71,1.42,3.12,3.53,6.33,7,9.26,10.65,3.17,4,6,8.24,9.11,12.2s6.55,7.86,10,11.63c2.49,2.73,5.24,5.23,7.92,7.8l.32.33A4.11,4.11,0,0,1,128.41,78Z"/><path class="cls-1" d="M65.89,25.07a3.89,3.89,0,0,1-1,.32h-.15l-.47.05h-.08v0h-.93v-1l.49.05h.37a3.91,3.91,0,0,0,.48-.05,1.05,1.05,0,0,0,.24-.06h0a3.16,3.16,0,0,0,.54-.2l.31.6Z"/><path class="cls-1" d="M45.25,121.21A12.16,12.16,0,0,0,42,122a4.91,4.91,0,0,0-1.74,1.85,17.61,17.61,0,0,0-1.08,2.43c-2.37,5.33-4.8,10.62-7.07,16-1.65,3.89-3.12,7.84-4.57,11.8-1.08,3-1.88,6-3,9-1.46,3.83-3.21,7.57-4.64,11.41a7.38,7.38,0,0,0-.31,1.23.31.31,0,0,0-.05.1c-.05.13-.11.26-.16.4a9.06,9.06,0,0,0-2.33,4.57l-.16.2a6.69,6.69,0,0,0-1.43,2.58c-.86,1.4-1.38,3-2.27,4.36s-1.23,3-2,4.38S9.33,195,8.39,196.4c-.42.59-.89,1.14-1.29,1.74-1.56,2.33-3,4.7-4.68,7-.32.44-1.15.56-1.87.88a43.22,43.22,0,0,0,.26-4.55c-.23-4.2-.59-8.39-.81-12.57a2,2,0,0,1,.49-1.08c.1-.16.2-.31.28-.45a7.51,7.51,0,0,1,.87,1,.5.5,0,0,1,.08.26c.26,3.89.42,7.77.59,11.66v1.85c1.93-.91,2.41-2.39,3.07-3.72,1.82-3.62,3.26-7.47,5.49-10.84a91.18,91.18,0,0,0,8-14.93c2.42-5.69,4.8-11.39,7.08-17.13,1.62-4.08,3-8.25,4.58-12.34,1.73-4.42,3.61-8.78,5.43-13.17,1.07-2.57,2.09-5.17,3.27-7.69A3,3,0,0,1,41,121.16c1.33-.43,2.71-.69,4.06-1-.71-2.55-1.43-2.74-4.79-1.67.42-.62.85-1.23,1.42-2.06-.35-.29-.8-.74-1.32-1.11-2.34-1.66-5.16-2-7.93-2.35-1.29-.18-1.93.29-1.9,1.68a20.73,20.73,0,0,1-.42,4,3.22,3.22,0,0,1-.52,1.09c-.1.17-.21.34-.3.52l-.56-.11c0-.64-.07-1.28-.08-1.92v-.73c0-1.12.13-2.24.11-3.36A1.91,1.91,0,0,1,30.65,112a25.89,25.89,0,0,1,5.12.48,18.76,18.76,0,0,1,8.81,4,16,16,0,0,1,1.89,1.69C48,120,47.64,120.79,45.25,121.21Z"/><path class="cls-1" d="M1.08,186.6c-.25.38-.42.61-.47.6C.94,186.27.94,186.75,1.08,186.6Z"/><path class="cls-1" d="M29.24,120.5h0c-.25.37-.39.71-2.26,4.36-.14.26-.28.54-.43.84L24,130.58h0l-1.54,3c-2.43,5.83-4.77,11.69-7.18,17.52-.55,1.32-1.38,2.53-1.85,3.87-.87,2.44-1.43,5-2.39,7.38-.85,2.14-2.22,4.09-3.07,6.22-.76,2-3.52,9-5.29,13.71-.63,1.69-1.14,3.08-1.38,3.8a2.54,2.54,0,0,1-.17.46c.58-.88,1.51-2.47,2.28-3.74a8.64,8.64,0,0,1,1.34-2c.4-1,.76-2.06,1.2-3.06,1.35-3.07,2.81-6.1,4.07-9.2s2.2-6.13,3.39-9.17c2.44-6.2,9.55-23.24,13.68-33.41.93-2.29,1.71-4.23,2.25-5.62C29.46,120.07,29.41,120.16,29.24,120.5Zm-2.49,5.31h0c-.82,1.76-1.65,3.49-2.16,4.52-.4.8-.62,1.17-.51.78v-.06l2.59-5.28.16-.33,1.34-2.74C27.75,123.68,27.25,124.75,26.75,125.81Z"/><path class="cls-1" d="M24.09,131.19c0-.52-.23-1.11,0-1.55a36,36,0,0,1,3.06-5.79,15.65,15.65,0,0,1-3.06,7.32Z"/><path class="cls-1" d="M29.85,119a2.08,2.08,0,0,0-.3.72,3.89,3.89,0,0,1-.1.56c0,.19-.05.27-.07.4a15.66,15.66,0,0,1-.84,2.59A8.3,8.3,0,0,1,27.11,126l-.13.15-.25-.22h0l-.13-.11-.38-.33-.29-.26a6.64,6.64,0,0,0,1.26-2.32,13,13,0,0,0,.77-2.36.68.68,0,0,1,.07-.36,4.26,4.26,0,0,1,.64-1.84h0Z"/><path class="cls-1" d="M45,120.13c-1.35.34-2.73.6-4.06,1a3,3,0,0,0-1.72,1.12C38.05,124.8,37,127.4,36,130c-1.82,4.39-3.7,8.75-5.43,13.17-1.61,4.09-3,8.26-4.58,12.34-2.28,5.74-4.66,11.44-7.08,17.13a91.18,91.18,0,0,1-8,14.93c-2.23,3.37-3.67,7.22-5.49,10.84-.66,1.33-1.14,2.81-3.07,3.72v-1.85c-.17-3.89-.33-7.77-.59-11.66a.5.5,0,0,0-.08-.26h.06a9.57,9.57,0,0,0,.68-2.27,12.67,12.67,0,0,1,.35-1.38,6.08,6.08,0,0,1,1-1.77l-.26-.17a8.64,8.64,0,0,1,1.34-2c.4-1,.76-2.06,1.2-3.06,1.35-3.07,2.81-6.1,4.07-9.2s2.2-6.13,3.39-9.17c2.44-6.2,9.55-23.24,13.68-33.41a8.36,8.36,0,0,0,1.43-2.64,15.66,15.66,0,0,0,.84-2.59.81.81,0,0,1,.07-.4,2.81,2.81,0,0,0,.1-.56,3.22,3.22,0,0,0,.52-1.09,20.73,20.73,0,0,0,.42-4c0-1.39.61-1.86,1.9-1.68,2.77.39,5.59.69,7.93,2.35a14.59,14.59,0,0,1,1.32,1.11c-.57.83-1,1.44-1.42,2.06C43.58,117.39,44.3,117.58,45,120.13Z"/><path class="cls-1" d="M3.69,182.93a6.08,6.08,0,0,0-1,1.77,12.67,12.67,0,0,0-.35,1.38,9.57,9.57,0,0,1-.68,2.27H1.6l-1.15-.51-.15-.07a8.16,8.16,0,0,0,.57-1.94,13.89,13.89,0,0,1,.39-1.54,7.4,7.4,0,0,1,1.19-2.19l.21.16.73.52Z"/><path class="cls-1" d="M127.62,178.83l-1.47-.27a.17.17,0,0,0,0,.17h-.08a1.77,1.77,0,0,0-.46,0h-.45a2.49,2.49,0,0,1-.72-.14,6,6,0,0,1-2.58-1.94l-5.72-6.45.32-.25.54-.44.28-.22,5.06,5.69.67.75a3.93,3.93,0,0,0,2.26,1.59H126a2.07,2.07,0,0,1,.5.06,1.57,1.57,0,0,1,1.12,1A1.14,1.14,0,0,1,127.62,178.83Z"/><path class="cls-1" d="M134.88,169.41c-.24,3.83-.47,7.66-.78,11.48-.14,1.59-1.67,2.21-3.63,1.19a64.93,64.93,0,0,1-6-3.57l-1.53-1c-.65-.44-.89-1.45-1.32-2.19l.54-.55.21.14,3.61,2.35,1.62,1,1.47,1c.41.27.7.71,1.12.93,1.32.67,2.36.12,2.43-1.3s0-2.73,0-4.09c.16-2.9.27-5.8.63-8.67a4.27,4.27,0,0,0-1-3.67l1.06-.88.94,1a4.27,4.27,0,0,1,.68,2.55A35.93,35.93,0,0,1,134.88,169.41Z"/><path class="cls-1" d="M133.34,161.58l-1.06.88c-.1-.12-.22-.23-.34-.35-2.9-2.69-5.87-5.32-8.57-8.18-3.73-4-7.37-8-10.81-12.2s-6.44-8.64-9.86-12.81c-3.17-3.85-6.65-7.47-10-11.17a21.9,21.9,0,0,0-1.84-1.5c-1.08-1-.84-1.7.63-2,2.94-.71,5.88-1.41,8.8-2.17.41-.11,1-.49,1-.8a1.84,1.84,0,0,0-.68-1.11c-2.08-1.6-4.13-3.24-6.31-4.69A59.41,59.41,0,0,0,86.55,101a4.3,4.3,0,0,0-3.67.73A33.13,33.13,0,0,1,72.19,108c-2.19.81-4.39,1.62-6.59,2.41h0a5.68,5.68,0,0,1-.92.14H64.6l-.12-.42.11-.05h.09a7.38,7.38,0,0,1,1.42-.6c4.7-1.08,8.76-3.42,12.65-6,1.69-1.12,2.72-3.13,5-3.42a6.74,6.74,0,0,1,2-.15c4,.84,7.71,2.24,10.66,5.13a52.3,52.3,0,0,0,4.15,3.27,16.23,16.23,0,0,1,2.49,2.12,2.24,2.24,0,0,1,.35,1.91c-.15.43-1,.73-1.57.89-1.73.48-3.47.88-5.22,1.29-1.2.28-2.41.52-4.06.88.69.88,1.11,1.87,1.89,2.33a14.13,14.13,0,0,1,3.82,3.77c2,2.56,4.36,4.86,6.54,7.28,2.34,2.61,4.68,5.22,7,7.87,1.34,1.55,2.63,3.16,3.84,4.81,1.51,2.06,2.85,4.24,4.41,6.27a45.06,45.06,0,0,0,3.47,3.71C126.8,154.74,130.12,158.11,133.34,161.58Z"/><path class="cls-1" d="M117.78,171a13.18,13.18,0,0,1-1.29-1.08h0c-3.12-3.42-6.42-6.71-9.28-10.33-2.33-3-4.16-6.27-6.19-9.44-1.89-3-3.83-5.9-5.62-8.92-1.52-2.58-2.7-5.35-4.33-7.86-2.38-3.66-5.09-7.13-7.54-10.75a20.07,20.07,0,0,1-1.33-2.29c-.19-.39-.38-.78-.56-1.17l.24-.21.15-.14.41.53c6.18,8,30.06,42.41,34.62,50.17A5.86,5.86,0,0,1,117.78,171Z"/><path class="cls-1" d="M78.66,115.22l-.32.29-.38.35-.21.19h-.53c-8.55-.13-17.08-.36-25.44-2.38l-.21-.53c.67-.34,1.36-1,2-1a19.65,19.65,0,0,0,8.2-1.39l.5-.22a1.06,1.06,0,0,1,.61,0l.36.07.63.09-.44.31-.08.06h0l-3.13,2.18,2.73.56a39.37,39.37,0,0,0,12,1,6.44,6.44,0,0,1,1.91.08H77Z"/><path class="cls-1" d="M64.65,110.91H63.38a2.35,2.35,0,0,0-.81.31,3.91,3.91,0,0,0-.41.3l-.64-.74a2.83,2.83,0,0,1,.28-.2,1.88,1.88,0,0,1,.23-.16,4.11,4.11,0,0,1,.89-.38l.25-.06c.23,0,.46-.09.7-.12h.78v1Z"/><path class="cls-1" d="M82.67,120l-.5.29-.35.21a2.71,2.71,0,0,1-.43-1.22v-.23l-.18-.11-.08,0a4.89,4.89,0,0,1-1.08-1,3.93,3.93,0,0,0-.85-.83,3.58,3.58,0,0,0-.48-.24l-1.28-.61-.2-.09-.75-.35.42-.82h0a.17.17,0,0,1,.1,0c.29.12.58.26.86.39l.48.23.81.38a6.54,6.54,0,0,1,.59.3,5.34,5.34,0,0,1,1.07,1,4.56,4.56,0,0,0,.86.84h.06a1.39,1.39,0,0,1,.54.51.47.47,0,0,1,.06.15,1.86,1.86,0,0,1,.06.34v.17A1.66,1.66,0,0,0,82.67,120Z"/><path class="cls-1" d="M133.28,166.13c-.36,2.87-.47,5.77-.63,8.67-.07,1.36,0,2.73,0,4.09s-1.11,2-2.43,1.3c-.42-.22-.71-.66-1.12-.93l-1.47-1a1.57,1.57,0,0,0-1.12-1,2.07,2.07,0,0,0-.5-.06l-3.61-2.35-5.06-5.69-.28.22c-4.56-7.76-28.44-42.22-34.62-50.17V119a1.86,1.86,0,0,0-.06-.34.47.47,0,0,0-.06-.15,1.39,1.39,0,0,0-.54-.51h-.06a4.56,4.56,0,0,1-.86-.84,5.34,5.34,0,0,0-1.07-1,6.54,6.54,0,0,0-.59-.3l-.81-.38.32-.29c-.55-.12-1.11-.24-1.66-.33a.17.17,0,0,0-.1,0h0a6.44,6.44,0,0,0-1.91-.08,39.37,39.37,0,0,1-12-1l-2.73-.56,3.13-2.18H64a2.09,2.09,0,0,0,.5,0h.17a4.35,4.35,0,0,0,1-.33l-.11-.22h0c2.2-.79,4.4-1.6,6.59-2.41a33.13,33.13,0,0,0,10.69-6.31,4.3,4.3,0,0,1,3.67-.73,59.41,59.41,0,0,1,7.75,4.53c2.18,1.45,4.23,3.09,6.31,4.69.34.26.73.77.68,1.11s-.61.69-1,.8c-2.92.76-5.86,1.46-8.8,2.17-1.47.35-1.71,1-.63,2,.57.54,1.32.93,1.84,1.5,3.37,3.7,6.85,7.32,10,11.17,3.42,4.17,6.43,8.65,9.86,12.81s7.08,8.24,10.81,12.2c2.7,2.86,5.67,5.49,8.57,8.18.12.12.24.23.34.35A4.24,4.24,0,0,1,133.28,166.13Z"/><path class="cls-1" d="M65.67,110.58a4.35,4.35,0,0,1-1,.33.49.49,0,0,1-.17,0h-.59V111h-1v-1h.54a2.67,2.67,0,0,0,.4,0,4.34,4.34,0,0,0,.51,0,1.1,1.1,0,0,0,.26-.06h0a3.1,3.1,0,0,0,.58-.21l.34.63Z"/><g class="cls-2"><path class="cls-1" d="M6.49,333.38q.15-2,.21-6l3.28,0q-.11,4.25-.39,6.54a66.28,66.28,0,0,1-1.2,6.87l-3.05-.18C6,337.1,6.39,334.69,6.49,333.38Zm7.58,1.27V317.57h3.64v12.94l1.69-1.69c.68-.76,1.66-2,2.94-3.67l2.4,1.9c-1.44,1.65-2.6,2.91-3.46,3.77s-2,1.76-3.57,3.13v.7a74.24,74.24,0,0,1-.7,10.62,55.78,55.78,0,0,0,6.53,8.8l-2.11,2.78a41.36,41.36,0,0,1-5.2-7.23,33.55,33.55,0,0,1-8,15.25l-2.65-1.56a32.7,32.7,0,0,0,6.7-12.7A65.64,65.64,0,0,0,14.07,334.65Zm39.46,8.43H34.26l-.83,4.9H51.55v6.45a31.94,31.94,0,0,1-.42,6.35,4.15,4.15,0,0,1-2.21,2.74q-1.77,1-6.07,1h-5l-.73-3.43h5.72q4.35,0,4.64-2.84a37.59,37.59,0,0,0,.21-4.76V351H32.91l-.31,2H29.16l1.49-9.17q-3.81,2.08-8.31,4.09l-1.79-2.34q12.15-5.94,17.85-10.81H23.54v-3H34.37v-7H25.62v-3h8.75v-4.37h3.85v4.37h7.39v3H38.22v7h3.36a83.91,83.91,0,0,0,9.27-12.07l2.81,1.87A93.94,93.94,0,0,1,46,331.73h9.21v3h-12a46.13,46.13,0,0,1-3.54,3.18c-.92.69-1.88,1.41-2.89,2.13H53.53Z"/><path class="cls-1" d="M75.89,329.76q8.28-5.7,11.61-11.69h3.2q2.34,4.19,9.21,8.12l-2.08,2.63a28.11,28.11,0,0,1-8.72-7.63,38.72,38.72,0,0,1-4.5,5.5h8.9v2.39H84.14v-1.9A42.25,42.25,0,0,1,78,332.23Zm4.4,36V332.41H97.47v16.14H83.93V353H97.47v2.6H83.93v4.48H97.67v2.6H83.93v3Zm3.64-26.45h9.89V335H83.93Zm9.89,2.19H83.93V346h9.89Zm24.26,24V346h-8.27q-.21,12.81-7.22,19.75l-3-1.84a22.87,22.87,0,0,0,4.78-7.8A35.85,35.85,0,0,0,106,346h-5.78v-3.23H106v-12h-4.58v-3.23h5.44l-3.56-8.07,3.85-.68,3.62,8.75h6.43l4-8.9,3.85.46-4,8.44h5.54v3.23h-4.68v12h5.93V346h-5.93v19.57Zm-8.22-34.77v12h8.22v-12Z"/></g><g class="cls-2"><path class="cls-1" d="M34.91,394.72H33.1v-6.51a5.14,5.14,0,0,0-.6-3,2.36,2.36,0,0,0-2-.74A5.6,5.6,0,0,0,27.1,386v8.77H25.29V378.5H27.1v6a6.3,6.3,0,0,1,4-1.72,3.48,3.48,0,0,1,2.79,1.13,4.83,4.83,0,0,1,1,3.26Z"/><path class="cls-1" d="M45.36,394.72v-1.3A8.84,8.84,0,0,1,43,394.76a6.84,6.84,0,0,1-1.91.28,3.5,3.5,0,0,1-2.58-1,3.54,3.54,0,0,1-1-2.62A3.43,3.43,0,0,1,39,388.34c1-.69,3.15-1.09,6.38-1.22v-.35a2.18,2.18,0,0,0-.72-1.8,4.13,4.13,0,0,0-2.53-.58,9.27,9.27,0,0,0-3.56.82h-.08v-1.88a13.68,13.68,0,0,1,3.71-.53,6,6,0,0,1,3.78,1,3.62,3.62,0,0,1,1.2,3v8Zm0-2.77v-3.38c-2.56.12-4.21.4-4.94.85a2.09,2.09,0,0,0-1.1,1.86c0,1.39.85,2.09,2.54,2.09A5.63,5.63,0,0,0,45.36,392Z"/><path class="cls-1" d="M52.4,394.1l-.16.62H50.57V378.5h1.82v5.86a6.15,6.15,0,0,1,3.86-1.61,3.88,3.88,0,0,1,3.27,1.62,7.13,7.13,0,0,1,1.22,4.43,6.74,6.74,0,0,1-1.47,4.51A4.62,4.62,0,0,1,55.62,395,6,6,0,0,1,52.4,394.1Zm0-8.27v6.9a7.05,7.05,0,0,0,2.86.69,3.25,3.25,0,0,0,2.67-1.19,5.35,5.35,0,0,0,.95-3.38q0-4.39-3.14-4.39A5.27,5.27,0,0,0,52.39,385.83Z"/><path class="cls-1" d="M70.44,394.72v-1.3a9,9,0,0,1-2.39,1.34,6.9,6.9,0,0,1-1.91.28,3.47,3.47,0,0,1-2.58-1,3.54,3.54,0,0,1-1-2.62,3.43,3.43,0,0,1,1.53-3.05c1-.69,3.14-1.09,6.38-1.22v-.35a2.18,2.18,0,0,0-.72-1.8,4.14,4.14,0,0,0-2.54-.58,9.22,9.22,0,0,0-3.55.82h-.08v-1.88a13.66,13.66,0,0,1,3.7-.53,6,6,0,0,1,3.79,1,3.62,3.62,0,0,1,1.2,3v8Zm0-2.77v-3.38c-2.56.12-4.21.4-4.94.85a2.09,2.09,0,0,0-1.1,1.86c0,1.39.85,2.09,2.54,2.09A5.65,5.65,0,0,0,70.44,392Z"/><path class="cls-1" d="M78.94,395a9,9,0,0,1-4.1-1v-2.1h.07A6.91,6.91,0,0,0,79,393.48c1.92,0,2.88-.6,2.88-1.81a1.49,1.49,0,0,0-.39-1.1A3.32,3.32,0,0,0,80,389.9c-.68-.13-1.45-.3-2.32-.51a3.86,3.86,0,0,1-2-1.08,2.88,2.88,0,0,1-.71-2,3.08,3.08,0,0,1,1.26-2.53,5.3,5.3,0,0,1,3.35-1,8.26,8.26,0,0,1,3.81.84v2h-.08a6.36,6.36,0,0,0-3.82-1.33,3.7,3.7,0,0,0-2,.46,1.44,1.44,0,0,0-.72,1.27,1.49,1.49,0,0,0,.39,1.11,3.67,3.67,0,0,0,1.54.67l2.28.49a4,4,0,0,1,2.12,1.09,2.89,2.89,0,0,1,.71,2A3.1,3.1,0,0,1,82.45,394,5.61,5.61,0,0,1,78.94,395Z"/><path class="cls-1" d="M90.67,395a5,5,0,0,1-3.92-1.64,7.67,7.67,0,0,1,0-9,5.46,5.46,0,0,1,7.83,0,7.72,7.72,0,0,1,0,9A5,5,0,0,1,90.67,395Zm0-10.75a3,3,0,0,0-2.58,1.19,5.52,5.52,0,0,0-.91,3.43,5.46,5.46,0,0,0,.91,3.4,3,3,0,0,0,2.58,1.18,3.07,3.07,0,0,0,2.59-1.18,5.53,5.53,0,0,0,.91-3.4Q94.17,384.29,90.67,384.29Z"/><path class="cls-1" d="M102.37,395c-2.41,0-3.61-1.33-3.61-4v-6.42H97.43v-1.48h1.34v-3.35h1.8v3.35h4.08v1.48h-4.08V390a6.77,6.77,0,0,0,.26,2.37,1.6,1.6,0,0,0,.76.8,3,3,0,0,0,1.32.25,4.45,4.45,0,0,0,1.68-.37h.06v1.65A9.6,9.6,0,0,1,102.37,395Z"/><path class="cls-1" d="M116.22,394.72h-1.81v-1.4a6.51,6.51,0,0,1-4,1.72,3.48,3.48,0,0,1-2.79-1.13,4.79,4.79,0,0,1-1-3.23v-7.6h1.81v6.54a5,5,0,0,0,.61,3,2.41,2.41,0,0,0,2,.73,5.56,5.56,0,0,0,3.43-1.5v-8.75h1.81Z"/></g></g></g></g></g></svg>